<?xml version="1.0" standalone="no"?>
<!DOCTYPE svg PUBLIC "-//W3C//DTD SVG 20010904//EN"
 "http://www.w3.org/TR/2001/REC-SVG-20010904/DTD/svg10.dtd">
<svg version="1.0" xmlns="http://www.w3.org/2000/svg"
 width="512.000000pt" height="512.000000pt" viewBox="0 0 512.000000 512.000000"
 preserveAspectRatio="xMidYMid meet">

<g transform="translate(0.000000,512.000000) scale(0.100000,-0.100000)"
fill="#000000" stroke="none">
<path d="M2025 5114 c-296 -45 -553 -194 -845 -488 l-104 -106 -116 115 c-150
147 -196 168 -285 125 -53 -26 -299 -274 -320 -323 -35 -85 -11 -137 134 -281
l109 -108 -24 -42 c-17 -28 -24 -57 -24 -93 0 -44 5 -58 36 -98 43 -57 40 -82
-14 -137 -42 -44 -73 -48 -130 -19 -76 38 -110 44 -160 30 -38 -10 -65 -31
-143 -108 -52 -53 -104 -114 -114 -136 -27 -58 -30 -124 -10 -186 16 -49 40
-76 284 -320 244 -244 271 -268 320 -284 62 -20 128 -17 186 10 22 10 83 62
136 114 132 130 143 175 78 303 -28 54 -24 82 17 128 45 50 87 54 140 13 50
-38 128 -43 185 -13 l42 21 276 -275 276 -276 -575 -575 -575 -575 -76 0
c-272 0 -557 -198 -668 -463 -204 -492 133 -1033 664 -1064 210 -12 419 64
568 205 143 136 237 343 237 521 l0 76 575 575 575 575 100 -100 100 -100 -69
-70 c-66 -66 -75 -83 -72 -130 2 -29 1379 -1404 1458 -1456 178 -116 394 -128
593 -33 94 45 213 160 259 253 91 179 92 369 5 550 -36 73 -62 100 -743 784
-388 390 -715 713 -726 719 -44 25 -75 12 -149 -61 l-71 -71 -100 100 -100
100 579 579 578 578 86 7 c115 9 199 29 285 70 350 163 514 572 377 939 -24
63 -50 87 -94 87 -24 0 -61 -32 -236 -205 -114 -112 -219 -209 -234 -215 -43
-16 -96 -12 -143 11 -80 39 -116 144 -77 222 9 18 106 122 215 233 168 170
199 205 199 230 0 44 -24 70 -87 94 -104 39 -199 53 -309 47 -387 -24 -688
-330 -697 -709 l-2 -78 -583 -582 -582 -583 -277 277 -276 276 33 38 c48 56
70 110 70 179 0 92 -22 127 -167 268 l-128 126 85 86 c247 251 475 386 694
410 88 10 129 63 96 126 -22 39 -154 109 -272 143 -58 17 -218 28 -273 20z
m2415 -181 c2 -2 -62 -70 -143 -151 -176 -177 -200 -218 -200 -342 0 -66 5
-88 30 -142 70 -147 220 -226 378 -197 83 15 108 30 208 128 70 68 86 80 77
56 -53 -140 -181 -284 -310 -348 -101 -50 -176 -68 -293 -71 l-98 -2 -1424
-1424 -1425 -1425 0 -89 c0 -108 -19 -185 -72 -296 -34 -70 -56 -100 -127
-170 -141 -139 -277 -194 -477 -195 -106 0 -112 1 -148 28 -146 112 -225 261
-233 442 -9 183 45 324 171 450 119 118 263 174 446 175 l85 0 1447 1448 1448
1447 0 100 c0 57 7 127 15 160 67 264 318 449 580 427 33 -3 62 -7 65 -9z
m-2407 -72 c15 -5 2 -17 -63 -60 -218 -142 -440 -371 -440 -454 0 -21 -15 -45
-55 -90 -82 -90 -81 -93 74 -251 119 -122 161 -176 161 -208 0 -7 -97 -110
-215 -228 -200 -200 -215 -213 -232 -198 -39 34 -88 51 -147 51 -99 0 -176
-44 -243 -140 -30 -44 -36 -62 -41 -121 -4 -60 -1 -77 22 -127 14 -32 26 -63
26 -70 0 -19 -134 -143 -162 -150 -16 -4 -37 -1 -54 8 -46 25 -482 468 -489
499 -9 35 6 60 82 140 l65 66 61 -29 c114 -54 217 -36 309 53 108 105 129 246
50 339 l-26 31 366 362 c201 199 400 388 442 420 92 70 198 135 246 152 37 14
232 18 263 5z m2178 -3358 c726 -728 707 -706 728 -843 44 -278 -206 -530
-478 -482 -77 14 -153 48 -206 93 -23 19 -326 321 -675 672 l-634 638 295 295
c161 162 296 294 299 294 3 0 305 -300 671 -667z"/>
<path d="M3465 3580 c-11 -5 -451 -440 -977 -967 -885 -885 -958 -961 -958
-991 0 -46 46 -92 92 -92 30 0 106 73 991 958 527 526 963 968 968 981 16 39
-7 90 -47 107 -38 16 -41 16 -69 4z"/>
<path d="M675 1097 c-180 -60 -279 -217 -245 -389 16 -81 41 -129 96 -185 111
-110 292 -131 422 -49 58 36 119 111 143 175 46 121 7 287 -86 368 -89 78
-231 112 -330 80z m140 -168 c21 -6 53 -25 71 -43 135 -135 -25 -353 -196
-266 -101 52 -121 188 -37 267 51 49 96 60 162 42z"/>
</g>
</svg>
